<?xml version="1.0" standalone="no"?>
<!DOCTYPE svg PUBLIC "-//W3C//DTD SVG 20010904//EN"
 "http://www.w3.org/TR/2001/REC-SVG-20010904/DTD/svg10.dtd">
<svg version="1.0" xmlns="http://www.w3.org/2000/svg"
 width="873.000000pt" height="490.000000pt" viewBox="0 0 873.000000 490.000000"
 preserveAspectRatio="xMidYMid meet">

<g transform="translate(0.000000,490.000000) scale(0.100000,-0.100000)"
fill="#000000" stroke="none">
<path d="M6770 4010 c-11 -11 -20 -32 -19 -47 1 -27 1 -26 9 5 9 37 7 35 35
50 11 6 14 12 8 12 -7 0 -22 -9 -33 -20z"/>
<path d="M6840 4020 c8 -5 20 -10 25 -10 6 0 3 5 -5 10 -8 5 -19 10 -25 10 -5
0 -3 -5 5 -10z"/>
<path d="M6796 3991 c-4 -5 3 -7 14 -4 23 6 26 13 6 13 -8 0 -17 -4 -20 -9z"/>
<path d="M7052 3891 c-34 -60 -62 -112 -62 -116 0 -4 28 -56 62 -116 l62 -109
131 0 130 0 34 58 c19 31 49 82 66 113 l33 57 -65 111 -65 111 -132 0 -132 0
-62 -109z m362 -17 l57 -96 -58 -99 -57 -99 -111 0 -110 0 -54 92 c-30 51 -54
98 -54 104 0 6 23 52 52 102 l53 92 113 0 113 0 56 -96z"/>
<path d="M7182 3887 c-48 -28 -70 -89 -49 -139 15 -34 57 -79 57 -61 0 6 -6
16 -14 22 -55 46 3 161 81 161 58 0 115 -80 94 -131 -22 -53 -39 -64 -96 -64
-35 0 -48 -3 -38 -9 20 -11 89 -1 110 16 25 20 43 74 37 106 -9 45 -73 103
-120 108 -22 2 -49 -1 -62 -9z"/>
<path d="M7217 3813 c-11 -10 -8 -91 3 -98 14 -9 90 36 90 52 0 7 -15 22 -32
33 -35 21 -50 24 -61 13z m53 -18 c38 -20 38 -31 -2 -55 -40 -24 -48 -19 -48
31 0 43 7 46 50 24z"/>
<path d="M6881 3964 c0 -11 3 -14 6 -6 3 7 2 16 -1 19 -3 4 -6 -2 -5 -13z"/>
<path d="M7510 3945 c0 -21 5 -25 30 -25 25 0 30 4 30 25 0 21 -5 25 -30 25
-25 0 -30 -4 -30 -25z"/>
<path d="M6790 3940 c0 -5 5 -10 11 -10 5 0 7 5 4 10 -3 6 -8 10 -11 10 -2 0
-4 -4 -4 -10z"/>
<path d="M6830 3940 c-9 -6 -10 -10 -3 -10 6 0 15 5 18 10 8 12 4 12 -15 0z"/>
<path d="M4212 3908 c-7 -7 -12 -16 -12 -22 0 -5 6 -3 13 6 6 9 23 19 37 21
l25 4 -25 2 c-15 0 -31 -4 -38 -11z"/>
<path d="M6841 3894 c-21 -27 -21 -27 -44 -8 l-22 19 19 -22 c25 -29 28 -29
54 7 28 37 21 40 -7 4z"/>
<path d="M4220 3861 c0 -11 4 -22 9 -25 4 -3 6 6 3 19 -5 30 -12 33 -12 6z"/>
<path d="M1958 3813 c23 -2 61 -2 85 0 23 2 4 4 -43 4 -47 0 -66 -2 -42 -4z"/>
<path d="M4232 3785 c15 -16 20 -17 30 -6 11 11 10 13 0 7 -7 -4 -21 -2 -30 5
-15 12 -15 11 0 -6z"/>
<path d="M6160 3629 l-155 -161 -76 36 c-133 62 -224 81 -384 80 -204 -1 -339
-42 -492 -149 -36 -25 -70 -44 -76 -42 -6 2 -56 55 -112 118 l-101 114 -197 3
c-171 2 -197 0 -197 -13 0 -13 26 -15 189 -15 l189 0 53 -58 c30 -32 77 -85
105 -118 l52 -59 -67 -72 c-36 -39 -77 -89 -91 -111 l-25 -40 -65 68 -65 69
-277 6 c-166 4 -278 2 -278 -3 0 -15 95 -22 322 -22 l217 0 44 -47 c91 -97 88
-88 58 -155 -14 -31 -32 -57 -38 -58 -7 0 -20 -11 -29 -25 -31 -48 15 -101 62
-70 26 17 30 35 14 65 -13 25 15 91 85 195 115 172 308 314 504 367 61 17 104
21 221 21 128 0 155 -3 233 -27 339 -102 601 -378 699 -736 20 -74 23 -108 23
-260 0 -139 -4 -189 -19 -245 -45 -170 -139 -334 -255 -450 -53 -51 -65 -59
-95 -57 -60 4 -89 -54 -46 -93 39 -36 99 -12 100 40 0 12 21 41 46 65 25 25
62 66 82 93 20 26 39 47 43 47 4 0 50 -48 103 -107 52 -60 119 -134 148 -166
l53 -58 110 -11 c387 -35 427 -36 399 -8 -9 9 -49 13 -369 41 l-130 11 -95
106 c-52 59 -119 132 -148 164 l-54 57 37 65 c20 35 49 100 65 143 l28 78 71
-1 72 0 63 -63 63 -62 164 -10 c90 -6 259 -16 374 -24 116 -7 212 -12 214 -10
2 2 1 10 -2 17 -4 11 -92 19 -373 35 l-369 22 -57 61 -58 60 -76 7 -76 6 6 30
c38 191 21 399 -50 608 -5 13 12 15 141 11 l146 -5 133 132 c132 130 134 132
172 127 22 -3 207 -8 412 -11 317 -5 372 -4 372 8 0 15 -223 25 -638 29 l-204
1 -96 -94 c-53 -52 -113 -109 -134 -128 l-36 -33 -145 7 -144 7 -18 37 c-65
136 -220 318 -339 397 -31 20 -56 41 -56 47 0 8 201 221 274 289 17 16 44 18
293 18 236 0 273 2 273 15 0 13 -38 15 -282 15 l-283 0 -155 -161z"/>
<path d="M4179 3703 c-13 -16 -12 -17 4 -4 9 7 17 15 17 17 0 8 -8 3 -21 -13z"/>
<path d="M4284 3709 c-5 -8 -3 -9 6 -4 8 5 20 -1 33 -16 l19 -24 -14 24 c-17
29 -33 37 -44 20z"/>
<path d="M6450 3645 l0 -35 25 16 c14 9 25 20 25 24 0 4 -11 12 -25 18 -24 11
-25 10 -25 -23z"/>
<path d="M6520 3644 l0 -35 30 18 30 18 -22 17 c-33 25 -38 23 -38 -18z"/>
<path d="M6590 3645 l0 -36 32 17 32 17 -23 18 c-33 27 -41 24 -41 -16z"/>
<path d="M6670 3645 l0 -35 25 16 c30 19 30 23 8 40 -27 21 -33 17 -33 -21z"/>
<path d="M6740 3645 l0 -36 32 17 32 17 -23 18 c-33 27 -41 24 -41 -16z"/>
<path d="M6820 3645 l0 -34 30 17 30 17 -23 17 c-31 25 -37 22 -37 -17z"/>
<path d="M6890 3645 c0 -40 5 -42 39 -16 l24 18 -24 17 c-33 23 -39 20 -39
-19z"/>
<path d="M4150 3658 c0 -5 33 -8 74 -8 l75 0 4 -37 4 -38 1 39 c2 33 5 38 22
33 11 -3 20 -1 20 4 0 5 -21 9 -47 10 -27 0 -72 1 -101 2 -28 1 -52 -1 -52 -5z"/>
<path d="M2657 3605 c4 -26 1 -41 -13 -58 l-18 -22 21 20 c25 24 39 95 18 95
-10 0 -12 -9 -8 -35z"/>
<path d="M5978 3623 c-11 -3 -18 -14 -18 -29 0 -19 5 -24 25 -24 20 0 25 5 25
24 0 28 -7 34 -32 29z"/>
<path d="M2840 3607 c0 -8 10 -22 23 -33 12 -10 16 -12 10 -4 -7 8 -13 22 -13
32 0 10 -4 18 -10 18 -5 0 -10 -6 -10 -13z"/>
<path d="M2597 3581 c-3 -14 -1 -18 9 -14 16 6 18 19 5 27 -5 3 -11 -3 -14
-13z"/>
<path d="M4190 3563 c0 -4 5 -15 10 -23 8 -13 10 -13 10 2 0 9 -4 20 -10 23
-5 3 -10 3 -10 -2z"/>
<path d="M4240 3560 c0 -5 5 -10 11 -10 5 0 7 5 4 10 -3 6 -8 10 -11 10 -2 0
-4 -4 -4 -10z"/>
<path d="M4320 3549 c0 -5 5 -7 10 -4 6 3 10 8 10 11 0 2 -4 4 -10 4 -5 0 -10
-5 -10 -11z"/>
<path d="M2839 3543 c-1 -4 0 -32 1 -61 1 -31 -3 -60 -11 -70 -12 -15 -11 -15
3 -2 17 16 31 127 16 136 -4 3 -9 2 -9 -3z"/>
<path d="M2877 3486 c-4 -43 -13 -77 -24 -90 -18 -21 -18 -21 4 -2 22 18 40
100 31 142 -2 11 -7 -12 -11 -50z"/>
<path d="M2904 3524 c3 -9 6 -34 7 -57 1 -50 6 -40 12 26 4 37 1 47 -10 47
-10 0 -13 -6 -9 -16z"/>
<path d="M2548 3443 c3 -65 8 -92 20 -103 14 -14 15 -13 3 2 -9 12 -12 44 -10
103 3 52 0 85 -6 85 -6 0 -9 -34 -7 -87z"/>
<path d="M4274 3519 c-3 -6 -17 -9 -30 -6 -13 2 -24 0 -24 -4 0 -5 14 -9 30
-9 17 0 30 5 30 11 0 5 5 7 12 3 7 -4 8 -3 4 4 -9 15 -13 15 -22 1z"/>
<path d="M6966 3522 c-3 -3 -6 -16 -6 -29 0 -18 5 -23 25 -23 20 0 25 5 25 24
0 22 -31 42 -44 28z"/>
<path d="M2804 3471 c1 -57 13 -55 18 3 1 22 -2 41 -8 43 -7 2 -11 -14 -10
-46z"/>
<path d="M3630 3475 c0 -18 5 -25 20 -25 15 0 20 7 20 25 0 18 -5 25 -20 25
-15 0 -20 -7 -20 -25z"/>
<path d="M2770 3478 c0 -7 5 -20 10 -28 8 -12 10 -9 10 13 0 15 -4 27 -10 27
-5 0 -10 -6 -10 -12z"/>
<path d="M2496 3472 c-5 -9 9 -62 16 -62 2 0 3 13 3 29 0 32 -9 48 -19 33z"/>
<path d="M3726 3382 l-49 -99 46 -96 46 -97 100 0 100 0 48 94 49 94 -50 101
-51 101 -95 0 -96 0 -48 -98z m268 -20 l44 -87 -38 -73 c-20 -40 -42 -78 -47
-83 -7 -7 -40 -8 -90 -4 l-79 7 -41 81 -41 80 41 83 41 84 83 0 83 0 44 -88z"/>
<path d="M3870 3348 l-23 -31 26 19 c15 10 27 25 27 32 0 18 -4 15 -30 -20z"/>
<path d="M3918 3363 c7 -3 16 -2 19 1 4 3 -2 6 -13 5 -11 0 -14 -3 -6 -6z"/>
<path d="M3783 3213 c9 -2 23 -2 30 0 6 3 -1 5 -18 5 -16 0 -22 -2 -12 -5z"/>
<path d="M2759 3413 c-13 -16 -12 -17 4 -4 16 13 21 21 13 21 -2 0 -10 -8 -17
-17z"/>
<path d="M4530 3395 c0 -33 2 -35 35 -35 33 0 35 2 35 35 0 33 -2 35 -35 35
-33 0 -35 -2 -35 -35z"/>
<path d="M2882 3397 c-22 -23 -22 -30 -19 -198 l3 -174 2 174 c2 164 3 176 24
198 12 13 19 23 16 23 -2 0 -14 -11 -26 -23z"/>
<path d="M3004 3402 c-5 -16 -14 -22 -34 -22 -15 0 -34 -8 -41 -17 -11 -15
-11 -16 1 -5 8 6 25 12 40 12 36 1 68 26 52 42 -10 10 -14 8 -18 -10z"/>
<path d="M4765 3393 c2 -10 4 -21 4 -25 1 -5 10 -8 21 -8 15 0 20 7 20 25 0
20 -5 25 -24 25 -18 0 -23 -5 -21 -17z"/>
<path d="M8006 3388 c-75 -121 -119 -195 -119 -203 0 -5 30 -60 66 -121 l66
-111 138 -6 c104 -5 140 -4 148 5 17 19 135 215 135 224 0 4 -32 58 -71 121
l-70 113 -139 0 c-134 0 -140 -1 -154 -22z m333 -107 c34 -55 61 -102 61 -106
0 -3 -26 -49 -57 -101 l-58 -94 -122 0 -122 0 -57 97 c-32 54 -57 102 -57 108
0 5 26 52 57 103 l58 92 118 0 118 0 61 -99z"/>
<path d="M8121 3205 c-29 -30 -49 -60 -46 -65 4 -6 10 -8 14 -5 5 2 16 -4 26
-15 10 -11 23 -20 30 -20 7 0 35 24 64 54 47 50 64 75 42 62 -4 -3 -19 6 -31
19 -13 14 -29 25 -35 25 -7 0 -36 -25 -64 -55z m99 20 l24 -26 -37 -36 c-36
-36 -36 -37 -57 -18 l-21 19 26 24 c26 23 27 24 48 5 l22 -18 -19 23 c-24 28
-31 28 -58 -3 -11 -13 -26 -22 -32 -18 -6 3 1 -7 17 -24 15 -16 27 -32 27 -36
0 -14 -27 -6 -45 13 -10 11 -22 17 -26 14 -5 -3 -9 -2 -9 1 0 12 94 105 106
105 6 0 21 -11 34 -25z"/>
<path d="M8170 3165 c-7 -8 -8 -15 -2 -15 5 0 15 7 22 15 7 8 8 15 2 15 -5 0
-15 -7 -22 -15z"/>
<path d="M8258 3238 c5 -5 16 -8 23 -6 8 3 3 7 -10 11 -17 4 -21 3 -13 -5z"/>
<path d="M2774 3387 c-3 -8 -3 -54 -2 -103 l3 -89 5 103 c5 101 4 114 -6 89z"/>
<path d="M4397 3393 c-4 -3 -7 -15 -7 -25 0 -13 7 -18 25 -18 20 0 25 5 25 25
0 18 -5 25 -18 25 -10 0 -22 -3 -25 -7z"/>
<path d="M5493 3393 c9 -2 23 -2 30 0 6 3 -1 5 -18 5 -16 0 -22 -2 -12 -5z"/>
<path d="M5544 3378 c0 -22 -2 -22 26 2 l23 20 -24 -2 c-16 -1 -25 -8 -25 -20z"/>
<path d="M3057 3370 c-4 -16 -14 -20 -50 -20 -25 0 -48 -3 -50 -7 -3 -5 16 -6
41 -4 48 4 96 27 86 42 -9 15 -21 10 -27 -11z"/>
<path d="M2804 3205 c0 -99 2 -138 3 -87 2 51 2 132 0 180 -1 48 -3 6 -3 -93z"/>
<path d="M5425 3369 c-4 -6 -5 -12 -2 -15 2 -3 7 2 10 11 7 17 1 20 -8 4z"/>
<path d="M2665 3350 c10 -11 20 -20 23 -20 3 0 -3 9 -13 20 -10 11 -20 20 -23
20 -3 0 3 -9 13 -20z"/>
<path d="M2710 3355 c0 -8 5 -15 10 -15 6 0 10 7 10 15 0 8 -4 15 -10 15 -5 0
-10 -7 -10 -15z"/>
<path d="M2834 3200 c0 -96 2 -136 3 -87 2 48 2 126 0 175 -1 48 -3 8 -3 -88z"/>
<path d="M5330 3355 c0 -8 2 -15 4 -15 2 0 6 7 10 15 3 8 1 15 -4 15 -6 0 -10
-7 -10 -15z"/>
<path d="M2629 3325 c31 -39 31 -40 31 -162 0 -156 -18 -165 -23 -10 l-3 112
-2 -112 c-3 -142 -22 -154 -22 -14 0 82 -3 101 -17 112 -15 11 -16 11 -5 -1 8
-9 12 -48 12 -112 0 -91 -1 -98 -20 -98 -16 0 -20 8 -23 63 l-3 62 -2 -62 c-2
-55 -4 -62 -24 -66 -13 -2 36 -4 107 -4 72 0 109 2 83 4 l-48 4 0 123 0 123
-36 39 -36 39 31 -40z"/>
<path d="M2741 3344 c0 -11 3 -14 6 -6 3 7 2 16 -1 19 -3 4 -6 -2 -5 -13z"/>
<path d="M2899 3323 c-13 -16 -12 -17 4 -4 16 13 21 21 13 21 -2 0 -10 -8 -17
-17z"/>
<path d="M5390 3325 c-7 -8 -17 -12 -23 -8 -6 3 -7 1 -3 -5 4 -7 1 -12 -8 -12
-9 0 -16 -7 -16 -15 0 -18 -57 -48 -77 -41 -12 5 -14 1 -9 -18 5 -20 0 -29
-23 -45 -30 -22 -84 -30 -64 -10 5 5 19 11 30 12 21 1 36 15 41 36 3 14 -22 1
-98 -49 -38 -24 -139 -152 -155 -195 -5 -14 -15 -23 -22 -21 -9 4 -10 -1 -3
-19 7 -18 5 -26 -11 -37 -15 -9 -21 -27 -24 -63 -2 -28 -1 -41 2 -30 3 11 14
32 24 47 11 14 19 29 19 33 0 3 7 13 15 21 20 21 19 11 -5 -32 -12 -20 -19
-39 -16 -41 3 -3 -2 -24 -11 -46 -9 -22 -17 -71 -17 -108 -1 -37 -4 -62 -7
-57 -4 6 -10 1 -14 -12 -4 -12 -2 -27 4 -33 8 -8 11 -6 13 9 0 10 4 -10 7 -46
5 -41 3 -68 -4 -72 -6 -5 -5 -8 3 -8 7 0 11 -4 7 -9 -3 -5 -1 -12 5 -16 6 -4
8 -11 5 -16 -4 -5 -2 -9 3 -9 6 0 13 -12 17 -27 8 -33 73 -175 83 -183 15 -11
46 -53 35 -46 -15 9 -17 -3 -3 -24 8 -12 10 -13 10 -1 0 10 8 7 25 -9 26 -24
34 -46 13 -34 -8 4 -10 3 -5 -2 5 -5 12 -9 15 -10 17 -2 50 -20 82 -44 101
-76 264 -137 277 -103 7 19 5 20 -68 47 -91 33 -157 70 -209 116 -32 29 -40
40 -27 40 10 0 15 -4 12 -10 -3 -5 -2 -10 4 -10 5 0 13 5 16 10 4 6 19 0 38
-14 100 -75 261 -123 377 -111 111 12 237 64 290 120 13 14 29 25 37 25 7 0
13 5 13 12 0 20 31 47 48 41 11 -3 13 -2 5 4 -8 6 -8 14 2 33 8 14 14 21 15
15 0 -11 30 43 30 55 0 5 10 30 21 57 25 56 27 72 29 262 2 161 13 168 31 20
12 -94 5 -225 -11 -200 -5 9 -9 7 -13 -8 -3 -12 -1 -21 5 -21 14 0 3 -38 -34
-121 -18 -42 -37 -69 -46 -69 -13 0 -13 -3 1 -18 10 -10 15 -21 12 -24 -3 -3
7 -3 22 0 25 5 27 4 14 -11 -7 -9 -17 -15 -21 -12 -4 3 -11 -2 -14 -11 -4 -10
-2 -13 6 -8 7 5 8 3 3 -5 -4 -7 -16 -11 -26 -8 -10 3 -22 1 -25 -4 -3 -5 -2
-9 3 -10 4 0 16 -2 27 -4 18 -4 57 33 83 79 15 26 17 49 3 41 -6 -4 -5 5 2 19
6 14 17 26 25 26 8 0 13 12 13 34 0 19 7 65 16 103 25 109 20 235 -16 358 -26
90 -26 98 3 90 13 -4 17 -3 10 2 -7 5 -27 36 -44 68 -17 33 -53 86 -78 118
-25 33 -54 71 -63 85 -9 14 -24 27 -32 28 -20 3 -67 40 -61 48 3 3 2 4 -2 1
-5 -4 -70 30 -83 44 -5 6 -9 7 -68 21 -37 9 -64 28 -57 40 8 13 -27 22 -39 10
-6 -6 -6 -10 0 -10 5 0 16 -5 24 -10 13 -8 12 -11 -5 -25 -20 -16 -20 -16 0
-12 11 2 27 -3 34 -11 12 -12 11 -13 -5 -9 -64 20 -130 28 -209 26 -49 -1 -94
-5 -100 -8 -19 -11 -79 -30 -83 -26 -3 2 -1 12 3 22 5 10 7 22 6 26 -1 5 2 6
7 3 5 -3 16 4 25 15 9 10 27 19 39 19 19 0 20 2 8 10 -20 13 -25 12 -40 -5z
m297 -117 c40 -9 53 -17 53 -31 0 -9 11 -22 25 -27 14 -5 25 -13 25 -18 0 -5
-33 3 -72 16 -40 14 -89 24 -108 24 -19 -1 -37 4 -42 11 -6 9 -10 9 -20 -1 -6
-6 -26 -12 -43 -12 -17 0 -55 -7 -85 -15 -30 -9 -62 -16 -70 -17 -8 0 -26 -10
-39 -22 -13 -11 -21 -15 -17 -8 4 6 2 12 -3 12 -24 0 -9 30 22 46 96 51 258
69 374 42z m-543 -87 c-10 -10 -21 -16 -24 -14 -3 3 4 11 14 19 28 20 33 17
10 -5z m716 15 c0 -2 -11 -6 -25 -8 -14 -3 -25 -1 -25 3 0 5 11 9 25 9 14 0
25 -2 25 -4z m-610 -27 c-24 -7 -24 -7 -2 -8 31 -1 27 -12 -18 -44 -43 -31
-124 -130 -140 -172 -6 -16 -14 -23 -22 -19 -6 4 -8 3 -4 -4 3 -6 2 -14 -4
-17 -6 -4 -8 -15 -5 -26 5 -14 0 -21 -17 -28 -13 -5 -25 -7 -26 -6 -8 7 21 81
35 92 8 6 12 16 9 21 -12 19 97 167 116 156 4 -3 8 0 8 7 0 19 62 68 79 61 12
-5 10 -8 -9 -13z m795 -40 c45 -41 55 -59 34 -59 -5 0 -8 4 -5 9 7 11 -28 43
-37 34 -4 -3 -7 1 -7 10 0 8 -9 19 -20 22 -11 3 -20 11 -20 16 0 16 9 10 55
-32z m-145 7 c0 5 7 0 16 -11 12 -17 16 -18 24 -5 8 12 10 12 16 -3 3 -9 11
-14 17 -10 7 4 8 0 4 -11 -4 -10 -1 -24 7 -32 17 -16 30 -19 21 -4 -11 18 1
11 21 -12 10 -12 13 -18 7 -14 -7 4 -13 3 -13 -2 0 -5 9 -12 20 -15 16 -4 20
-13 19 -49 0 -23 -3 -36 -6 -28 -9 25 -73 101 -132 159 -31 30 -48 48 -38 41
9 -7 17 -9 17 -4z m230 -126 c0 -5 -2 -10 -4 -10 -3 0 -8 5 -11 10 -3 6 -1 10
4 10 6 0 11 -4 11 -10z m-1123 -16 c-3 -3 -12 -4 -19 -1 -8 3 -5 6 6 6 11 1
17 -2 13 -5z m19 -320 c3 -153 7 -197 16 -204 12 -10 75 -140 67 -140 -4 0 11
-18 33 -40 30 -29 36 -40 24 -40 -9 0 -14 -5 -11 -10 4 -6 10 -8 15 -5 4 3 10
-4 13 -14 3 -13 1 -18 -9 -14 -17 6 -47 53 -34 53 5 0 10 5 10 11 0 6 -7 9
-15 5 -17 -6 -65 51 -65 77 0 10 -4 17 -10 17 -5 0 -7 7 -4 15 4 8 2 15 -4 15
-10 0 -44 81 -41 96 1 5 -3 22 -10 38 -14 35 -14 256 1 256 5 0 6 5 2 11 -4 7
-1 10 6 7 10 -3 14 -37 16 -134z"/>
<path d="M5614 3329 c-3 -5 6 -9 20 -9 31 0 34 6 6 13 -11 3 -23 1 -26 -4z"/>
<path d="M2520 3326 c0 -2 8 -10 18 -17 15 -13 16 -12 3 4 -13 16 -21 21 -21
13z"/>
<path d="M5518 3323 c7 -3 16 -2 19 1 4 3 -2 6 -13 5 -11 0 -14 -3 -6 -6z"/>
<path d="M2596 3298 c10 -14 21 -24 23 -22 3 3 -6 15 -18 27 l-24 22 19 -27z"/>
<path d="M2929 3303 c-13 -16 -12 -17 4 -4 9 7 17 15 17 17 0 8 -8 3 -21 -13z"/>
<path d="M5215 3310 c-4 -6 -10 -8 -15 -5 -11 7 -32 -30 -23 -39 3 -3 -2 -16
-13 -28 -18 -21 -17 -21 15 2 30 21 32 24 15 31 -17 6 -16 8 9 19 15 7 27 17
27 22 0 11 -7 10 -15 -2z"/>
<path d="M5775 3300 c3 -5 8 -10 11 -10 2 0 4 5 4 10 0 6 -5 10 -11 10 -5 0
-7 -4 -4 -10z"/>
<path d="M5255 3280 c-3 -5 3 -10 14 -10 12 0 21 5 21 10 0 6 -6 10 -14 10 -8
0 -18 -4 -21 -10z"/>
<path d="M2470 3260 c0 -5 13 -8 29 -7 16 1 27 5 24 10 -6 10 -53 9 -53 -3z"/>
<path d="M5110 3250 c-9 -6 -10 -10 -3 -10 6 0 15 5 18 10 8 12 4 12 -15 0z"/>
<path d="M2452 3219 c2 -6 7 -10 11 -10 4 1 17 1 30 2 21 0 21 1 2 9 -28 12
-47 12 -43 -1z"/>
<path d="M2555 3210 c10 -11 20 -20 23 -20 3 0 -3 9 -13 20 -10 11 -20 20 -23
20 -3 0 3 -9 13 -20z"/>
<path d="M5024 3169 c-26 -27 -43 -49 -36 -49 7 0 12 5 12 11 0 5 5 7 10 4 6
-4 9 -2 8 3 -4 12 42 53 52 47 4 -3 13 1 19 9 9 10 8 15 -2 19 -9 3 -35 -15
-63 -44z"/>
<path d="M2520 3196 c0 -2 8 -10 18 -17 15 -13 16 -12 3 4 -13 16 -21 21 -21
13z"/>
<path d="M4098 3186 c-17 -12 -17 -14 0 -30 26 -23 32 -20 32 14 0 33 -6 36
-32 16z"/>
<path d="M4158 3186 c-17 -12 -17 -14 0 -30 26 -23 32 -20 32 14 0 33 -6 36
-32 16z"/>
<path d="M4222 3184 l-23 -16 21 -15 c26 -18 33 -13 28 21 -3 26 -4 26 -26 10z"/>
<path d="M4280 3182 l-22 -18 26 -17 26 -17 0 35 c0 41 -1 41 -30 17z"/>
<path d="M4342 3182 l-24 -18 26 -17 26 -17 0 35 c0 19 -1 35 -2 35 -2 0 -14
-9 -26 -18z"/>
<path d="M4401 3177 c-8 -11 -6 -18 9 -32 20 -18 20 -17 20 13 0 34 -10 41
-29 19z"/>
<path d="M4467 3179 c-18 -10 -18 -12 -1 -30 24 -27 34 -24 34 11 0 32 -5 35
-33 19z"/>
<path d="M2210 3160 c0 -5 9 -14 21 -20 19 -11 20 -10 9 9 -11 22 -30 29 -30
11z"/>
<path d="M6550 3129 l0 -40 43 3 c41 3 42 4 45 41 l3 37 -45 0 -46 0 0 -41z"/>
<path d="M6035 3140 c-3 -5 -1 -10 4 -10 6 0 11 5 11 10 0 6 -2 10 -4 10 -3 0
-8 -4 -11 -10z"/>
<path d="M7140 3106 c0 -41 5 -43 38 -18 l22 17 -30 18 -30 18 0 -35z"/>
<path d="M7580 3095 c0 -40 5 -42 38 -17 l24 18 -26 17 c-34 23 -36 22 -36
-18z"/>
<path d="M7660 3095 c0 -40 8 -43 41 -16 l23 18 -32 17 -32 17 0 -36z"/>
<path d="M7740 3096 c0 -40 0 -40 35 -24 32 14 32 20 -5 41 l-30 18 0 -35z"/>
<path d="M6145 3110 c3 -5 1 -10 -4 -10 -6 0 -11 -5 -11 -11 0 -8 4 -9 13 0 8
6 18 7 23 3 4 -4 2 1 -5 11 -14 18 -26 24 -16 7z"/>
<path d="M2196 3101 c-4 -6 0 -14 8 -17 10 -4 16 -18 16 -39 0 -19 7 -38 18
-46 14 -11 15 -11 5 1 -7 8 -13 28 -13 45 0 36 -23 74 -34 56z"/>
<path d="M3110 3066 c0 -8 5 -18 10 -21 6 -3 10 3 10 14 0 12 -4 21 -10 21 -5
0 -10 -6 -10 -14z"/>
<path d="M4830 3055 c0 -20 5 -25 25 -25 20 0 25 5 25 25 0 20 -5 25 -25 25
-20 0 -25 -5 -25 -25z"/>
<path d="M4969 3053 c-13 -16 -12 -17 4 -4 9 7 17 15 17 17 0 8 -8 3 -21 -13z"/>
<path d="M3150 3038 c0 -7 5 -20 10 -28 8 -13 10 -12 10 3 0 9 0 20 1 24 0 4
-4 9 -10 11 -6 2 -11 -2 -11 -10z"/>
<path d="M2885 3030 c-3 -5 -1 -10 4 -10 6 0 11 5 11 10 0 6 -2 10 -4 10 -3 0
-8 -4 -11 -10z"/>
<path d="M2918 3023 c6 -2 18 -2 25 0 6 3 1 5 -13 5 -14 0 -19 -2 -12 -5z"/>
<path d="M3882 3008 c5 -34 38 -37 38 -4 0 20 -5 26 -21 26 -15 0 -20 -5 -17
-22z"/>
<path d="M2275 3000 c10 -11 20 -20 23 -20 3 0 -3 9 -13 20 -10 11 -20 20 -23
20 -3 0 3 -9 13 -20z"/>
<path d="M2500 3000 c0 -17 -8 -20 -92 -23 l-93 -3 92 -2 92 -2 -1 -30 c-1
-18 -7 -31 -17 -33 -13 -4 -13 -5 2 -6 9 0 17 -5 17 -11 0 -6 -44 -11 -107
-12 -104 -2 -105 -2 -23 -5 96 -3 130 -9 130 -23 0 -5 -12 -10 -27 -12 -27 -3
-27 -4 5 -9 l32 -6 0 99 c0 54 -2 98 -5 98 -3 0 -5 -9 -5 -20z"/>
<path d="M2964 2975 l1 -50 65 -3 c64 -3 66 -2 100 35 l35 38 -35 -32 c-33
-30 -42 -33 -98 -33 -35 0 -62 4 -62 10 0 6 24 10 53 10 43 0 58 5 75 23 12
13 22 27 22 31 0 5 -9 -3 -21 -18 -18 -22 -28 -26 -74 -26 -53 0 -54 0 -58 33
-3 18 -4 10 -3 -18z"/>
<path d="M3305 3006 c-11 -7 -29 -16 -40 -19 -19 -4 -18 -5 2 -6 12 0 25 4 28
9 3 6 17 7 31 4 18 -5 24 -2 24 10 0 20 -19 21 -45 2z"/>
<path d="M4385 3011 c88 -7 123 -19 89 -32 -18 -7 -17 -8 3 -8 22 -1 23 -4 26
-133 l3 -133 2 136 c2 130 1 136 -21 157 -20 19 -34 22 -103 20 l-79 -1 80 -6z"/>
<path d="M2100 2986 c0 -18 6 -19 35 -6 11 5 15 9 8 9 -6 1 -18 4 -27 7 -11 4
-16 1 -16 -10z"/>
<path d="M3194 2958 l-29 -33 33 29 c30 28 37 36 29 36 -2 0 -16 -15 -33 -32z"/>
<path d="M2180 2976 c0 -2 8 -10 18 -17 15 -13 16 -12 3 4 -13 16 -21 21 -21
13z"/>
<path d="M2250 2976 c0 -2 8 -10 18 -17 15 -13 16 -12 3 4 -13 16 -21 21 -21
13z"/>
<path d="M3375 2950 c-4 -6 -3 -16 3 -22 6 -6 12 -6 17 2 4 6 3 16 -3 22 -6 6
-12 6 -17 -2z"/>
<path d="M2158 2938 c5 -5 16 -8 23 -6 8 3 3 7 -10 11 -17 4 -21 3 -13 -5z"/>
<path d="M2328 2943 c23 -2 59 -2 80 0 20 2 1 4 -43 4 -44 0 -61 -2 -37 -4z"/>
<path d="M3212 2911 c-18 -22 -32 -43 -32 -47 0 -4 14 11 31 32 24 31 39 40
72 45 l42 6 -41 1 c-36 2 -44 -2 -72 -37z"/>
<path d="M4348 2943 c18 -3 23 -10 19 -24 -3 -10 -1 -19 5 -19 5 0 8 10 6 23
-2 15 -10 22 -28 24 -24 1 -24 1 -2 -4z"/>
<path d="M4413 2933 c15 -2 37 -2 50 0 12 2 0 4 -28 4 -27 0 -38 -2 -22 -4z"/>
<path d="M2229 2917 c5 -5 30 -7 57 -5 l49 3 -57 5 c-31 3 -53 1 -49 -3z"/>
<path d="M4340 2915 c-7 -9 -8 -15 -2 -15 5 0 12 7 16 15 3 8 4 15 2 15 -2 0
-9 -7 -16 -15z"/>
<path d="M2050 2904 c0 -14 3 -14 15 -4 8 7 15 14 15 16 0 2 -7 4 -15 4 -8 0
-15 -7 -15 -16z"/>
<path d="M2215 2900 c10 -11 20 -20 23 -20 3 0 -3 9 -13 20 -10 11 -20 20 -23
20 -3 0 3 -9 13 -20z"/>
<path d="M3150 2905 c-7 -8 -35 -16 -68 -18 l-57 -3 56 -2 c45 -2 60 2 74 18
10 11 16 20 13 20 -3 0 -11 -7 -18 -15z"/>
<path d="M4410 2910 c-20 -6 -21 -8 -5 -8 11 0 34 4 50 8 27 7 27 8 5 8 -14 0
-36 -4 -50 -8z"/>
<path d="M2102 2898 c2 -5 7 -9 11 -9 4 1 26 1 49 1 53 0 46 6 -15 12 -28 4
-47 2 -45 -4z"/>
<path d="M2823 2893 c-13 -8 -23 -22 -23 -30 0 -20 40 -52 65 -52 27 0 55 22
55 43 0 21 -38 55 -60 55 -8 0 -25 -7 -37 -16z"/>
<path d="M3234 2868 l-29 -33 31 28 c28 25 37 27 111 27 75 0 81 -2 87 -22 4
-19 8 -20 18 -10 25 25 -18 42 -107 42 -79 0 -82 -1 -111 -32z"/>
<path d="M2607 2741 c-26 -81 -47 -154 -47 -160 0 -7 10 -11 22 -9 17 2 25 14
34 43 l11 40 53 0 53 0 14 -47 c11 -41 17 -48 38 -48 14 0 25 1 25 3 0 2 -21
68 -46 148 -25 79 -48 152 -51 162 -3 11 -15 17 -32 17 -27 0 -29 -5 -74 -149z
m103 -18 c0 -8 -13 -13 -31 -13 -29 0 -31 2 -26 28 3 15 11 41 17 57 l12 30
14 -45 c7 -25 14 -51 14 -57z"/>
<path d="M2960 2879 c0 -5 5 -7 10 -4 6 3 10 8 10 11 0 2 -4 4 -10 4 -5 0 -10
-5 -10 -11z"/>
<path d="M6560 2854 l0 -35 29 17 29 17 -23 19 c-32 25 -35 23 -35 -18z"/>
<path d="M2120 2865 c0 -8 5 -15 10 -15 6 0 10 7 10 15 0 8 -4 15 -10 15 -5 0
-10 -7 -10 -15z"/>
<path d="M2200 2876 c0 -2 8 -10 18 -17 15 -13 16 -12 3 4 -13 16 -21 21 -21
13z"/>
<path d="M4348 2863 c12 -2 22 -11 22 -18 0 -7 -10 -16 -22 -18 -19 -4 -18 -4
5 -6 24 -1 28 2 25 22 -2 15 -10 22 -28 24 -22 1 -22 1 -2 -4z"/>
<path d="M2199 2838 c21 -24 32 -28 70 -26 l46 1 -45 4 c-28 3 -55 13 -70 26
l-25 22 24 -27z"/>
<path d="M2998 2853 c18 -2 45 -2 60 0 15 2 0 4 -33 4 -33 0 -45 -2 -27 -4z"/>
<path d="M4400 2851 c0 -6 17 -7 38 -4 51 8 53 13 4 13 -23 0 -42 -4 -42 -9z"/>
<path d="M2308 2843 c17 -2 47 -2 65 0 17 2 3 4 -33 4 -36 0 -50 -2 -32 -4z"/>
<path d="M3254 2818 l-29 -33 33 29 c30 28 37 36 29 36 -2 0 -16 -15 -33 -32z"/>
<path d="M3320 2844 c37 -8 88 -9 84 -2 -3 4 -26 7 -52 7 -26 -1 -40 -3 -32
-5z"/>
<path d="M4338 2843 c7 -3 16 -2 19 1 4 3 -2 6 -13 5 -11 0 -14 -3 -6 -6z"/>
<path d="M2140 2827 c0 -9 10 -14 29 -13 32 1 29 10 -6 21 -16 4 -23 2 -23 -8z"/>
<path d="M3100 2820 l-105 -6 102 -2 c59 -1 104 2 108 8 3 6 5 9 3 8 -2 -1
-50 -5 -108 -8z"/>
<path d="M4408 2823 c7 -3 16 -2 19 1 4 3 -2 6 -13 5 -11 0 -14 -3 -6 -6z"/>
<path d="M3420 2808 c8 -9 30 -19 48 -23 26 -5 32 -3 32 10 0 13 -6 15 -30 10
-19 -4 -37 -2 -48 6 -15 12 -15 11 -2 -3z"/>
<path d="M2425 2805 c23 -8 85 -10 85 -3 0 4 -21 8 -47 7 -27 0 -43 -2 -38 -4z"/>
<path d="M4866 2793 c-4 -9 -2 -21 4 -27 7 -7 10 -2 10 17 0 31 -5 34 -14 10z"/>
<path d="M2840 2681 c0 -111 1 -119 21 -124 25 -7 31 8 25 59 -2 21 -5 72 -5
112 -1 65 -3 72 -21 72 -19 0 -20 -7 -20 -119z"/>
<path d="M6216 2791 c-6 -10 9 -51 19 -51 5 0 -1 49 -7 56 -3 3 -9 1 -12 -5z"/>
<path d="M2998 2783 c18 -2 45 -2 60 0 15 2 0 4 -33 4 -33 0 -45 -2 -27 -4z"/>
<path d="M4367 2771 c4 -14 -1 -21 -19 -24 -21 -4 -20 -4 5 -6 23 -1 27 3 27
24 0 14 -4 25 -9 25 -5 0 -7 -9 -4 -19z"/>
<path d="M2318 2773 c29 -2 74 -2 100 0 26 2 2 3 -53 3 -55 0 -76 -1 -47 -3z"/>
<path d="M2501 2763 c-1 -20 -7 -23 -48 -25 l-48 -1 50 -6 c52 -6 61 0 52 37
-4 13 -5 11 -6 -5z"/>
<path d="M3148 2773 c18 -2 45 -2 60 0 15 2 0 4 -33 4 -33 0 -45 -2 -27 -4z"/>
<path d="M4425 2770 c-28 -7 -27 -8 13 -9 23 0 42 4 42 9 0 11 -11 11 -55 0z"/>
<path d="M4910 2756 c0 -8 4 -17 9 -20 5 -4 7 3 4 14 -6 23 -13 26 -13 6z"/>
<path d="M6738 2763 c82 -3 92 -6 92 -23 0 -10 9 -22 21 -25 31 -10 35 2 9 30
-22 24 -29 25 -119 23 l-96 -2 93 -3z m122 -34 c0 -6 -4 -7 -10 -4 -5 3 -10
11 -10 16 0 6 5 7 10 4 6 -3 10 -11 10 -16z"/>
<path d="M2240 2742 c0 -9 6 -12 16 -8 9 3 39 6 67 7 63 1 52 6 -25 12 -46 3
-58 1 -58 -11z"/>
<path d="M3235 2750 c-4 -6 -3 -16 3 -22 6 -6 12 -6 17 2 4 6 3 16 -3 22 -6 6
-12 6 -17 -2z"/>
<path d="M3083 2743 c26 -2 67 -2 90 0 23 2 2 3 -48 3 -49 0 -68 -1 -42 -3z"/>
<path d="M2239 2678 c-18 -24 -22 -32 -8 -18 13 14 32 33 43 43 10 9 14 17 8
17 -6 0 -25 -19 -43 -42z"/>
<path d="M2998 2713 c17 -2 47 -2 65 0 17 2 3 4 -33 4 -36 0 -50 -2 -32 -4z"/>
<path d="M4338 2713 c17 -2 47 -2 65 0 17 2 3 4 -33 4 -36 0 -50 -2 -32 -4z"/>
<path d="M6703 2713 c9 -2 23 -2 30 0 6 3 -1 5 -18 5 -16 0 -22 -2 -12 -5z"/>
<path d="M2030 2696 c0 -18 6 -19 35 -6 11 5 15 9 8 9 -6 1 -18 4 -27 7 -11 4
-16 1 -16 -10z"/>
<path d="M2447 2703 c44 -3 52 -7 56 -26 4 -18 5 -17 6 6 1 27 0 27 -56 25
l-58 -2 52 -3z"/>
<path d="M3214 2703 c49 -3 66 -10 93 -34 37 -32 63 -38 63 -13 0 12 -6 15
-23 10 -17 -4 -30 1 -47 19 -21 22 -31 25 -84 23 l-61 -2 59 -3z"/>
<path d="M6671 2662 c-1 -31 1 -33 27 -30 21 2 28 9 30 31 2 15 -1 27 -6 27
-5 0 -7 -11 -4 -25 3 -20 0 -25 -16 -25 -15 0 -22 8 -25 28 -4 25 -4 24 -6 -6z"/>
<path d="M2101 2663 c9 -15 23 -23 39 -22 21 1 21 2 5 6 -11 3 -29 12 -39 22
-18 15 -18 15 -5 -6z"/>
<path d="M2328 2673 c17 -2 47 -2 65 0 17 2 3 4 -33 4 -36 0 -50 -2 -32 -4z"/>
<path d="M3063 2673 c26 -2 68 -2 95 0 26 2 4 3 -48 3 -52 0 -74 -1 -47 -3z"/>
<path d="M6750 2672 c0 -4 19 -6 43 -4 70 5 76 10 15 11 -32 0 -58 -2 -58 -7z"/>
<path d="M3295 2641 c34 -32 95 -50 95 -26 0 10 -9 12 -33 8 -28 -4 -37 -1
-54 21 -12 14 -25 26 -29 26 -5 0 5 -13 21 -29z"/>
<path d="M6690 2659 c0 -5 5 -7 10 -4 6 3 10 8 10 11 0 2 -4 4 -10 4 -5 0 -10
-5 -10 -11z"/>
<path d="M6813 2653 c9 -2 25 -2 35 0 9 3 1 5 -18 5 -19 0 -27 -2 -17 -5z"/>
<path d="M2983 2643 c9 -2 25 -2 35 0 9 3 1 5 -18 5 -19 0 -27 -2 -17 -5z"/>
<path d="M2065 2630 c-4 -7 -1 -16 6 -21 17 -10 26 8 11 23 -6 6 -12 6 -17 -2z"/>
<path d="M2304 2618 l-19 -23 23 19 c21 18 27 26 19 26 -2 0 -12 -10 -23 -22z"/>
<path d="M2378 2633 c17 -2 47 -2 65 0 17 2 3 4 -33 4 -36 0 -50 -2 -32 -4z"/>
<path d="M3108 2633 c23 -2 61 -2 85 0 23 2 4 4 -43 4 -47 0 -66 -2 -42 -4z"/>
<path d="M6768 2633 c6 -2 18 -2 25 0 6 3 1 5 -13 5 -14 0 -19 -2 -12 -5z"/>
<path d="M2250 2615 c-7 -9 -35 -15 -73 -18 l-62 -3 61 -2 c50 -2 64 2 79 18
10 11 16 20 13 20 -3 0 -11 -7 -18 -15z"/>
<path d="M2334 2588 c-19 -23 -19 -23 1 -6 11 9 31 18 45 21 l25 4 -26 2 c-16
0 -33 -8 -45 -21z"/>
<path d="M3008 2603 c23 -2 61 -2 85 0 23 2 4 4 -43 4 -47 0 -66 -2 -42 -4z"/>
<path d="M6670 2580 c0 -27 3 -30 30 -30 25 0 30 4 30 25 0 14 -4 25 -9 25 -5
0 -7 -9 -4 -20 4 -15 0 -20 -16 -20 -23 0 -30 35 -8 43 7 3 5 6 -5 6 -13 1
-18 -7 -18 -29z"/>
<path d="M2478 2593 c6 -2 18 -2 25 0 6 3 1 5 -13 5 -14 0 -19 -2 -12 -5z"/>
<path d="M3203 2593 c15 -2 37 -2 50 0 12 2 0 4 -28 4 -27 0 -38 -2 -22 -4z"/>
<path d="M3290 2596 c0 -2 8 -10 18 -17 15 -13 16 -12 3 4 -13 16 -21 21 -21
13z"/>
<path d="M4389 2583 c-13 -16 -12 -17 4 -4 16 13 21 21 13 21 -2 0 -10 -8 -17
-17z"/>
<path d="M2264 2568 l-19 -23 23 19 c21 18 27 26 19 26 -2 0 -12 -10 -23 -22z"/>
<path d="M3360 2580 c-30 -6 -31 -8 -8 -9 14 0 33 -4 42 -7 11 -4 16 -1 16 10
0 9 -3 15 -7 15 -5 -1 -24 -5 -43 -9z"/>
<path d="M6798 2583 c12 -2 32 -2 45 0 12 2 2 4 -23 4 -25 0 -35 -2 -22 -4z"/>
<path d="M2983 2573 c9 -2 25 -2 35 0 9 3 1 5 -18 5 -19 0 -27 -2 -17 -5z"/>
<path d="M3285 2560 c10 -11 20 -20 23 -20 3 0 -3 9 -13 20 -10 11 -20 20 -23
20 -3 0 3 -9 13 -20z"/>
<path d="M3436 2554 c-16 -22 -25 -25 -61 -22 -24 1 -41 0 -38 -4 7 -12 81 -9
88 3 4 5 18 14 32 20 13 5 21 13 18 19 -9 15 -18 12 -39 -16z"/>
<path d="M4438 2570 c6 -8 12 -23 12 -33 0 -15 -5 -18 -21 -14 -16 4 -19 3
-11 -5 15 -15 42 -2 42 20 0 11 -8 26 -17 33 -15 11 -16 11 -5 -1z"/>
<path d="M2114 2559 c-7 -12 9 -15 46 -9 l35 6 -38 5 c-21 3 -40 2 -43 -2z"/>
<path d="M2369 2553 c-13 -16 -12 -17 3 -5 11 9 38 13 78 10 33 -1 60 0 60 5
0 4 -29 7 -64 7 -49 0 -67 -4 -77 -17z"/>
<path d="M3108 2563 c23 -2 61 -2 85 0 23 2 4 4 -43 4 -47 0 -66 -2 -42 -4z"/>
<path d="M6775 2560 c-42 -11 -1 -11 50 -1 34 7 35 9 10 9 -16 0 -43 -4 -60
-8z"/>
<path d="M3260 2556 c0 -2 8 -10 18 -17 15 -13 16 -12 3 4 -13 16 -21 21 -21
13z"/>
<path d="M6240 2551 c0 -6 5 -13 10 -16 6 -3 10 1 10 9 0 9 -4 16 -10 16 -5 0
-10 -4 -10 -9z"/>
<path d="M2285 2530 c-11 -12 -31 -20 -51 -20 -18 0 -35 -3 -38 -8 -12 -20 74
2 95 24 12 13 20 24 17 24 -3 0 -13 -9 -23 -20z"/>
<path d="M2423 2533 c15 -2 37 -2 50 0 12 2 0 4 -28 4 -27 0 -38 -2 -22 -4z"/>
<path d="M3017 2533 c18 -2 50 -2 70 0 21 2 7 4 -32 4 -38 0 -55 -2 -38 -4z"/>
<path d="M2338 2513 c-23 -27 -29 -63 -11 -63 10 0 12 6 8 21 -4 13 0 27 11
40 9 10 15 19 12 19 -3 0 -12 -8 -20 -17z"/>
<path d="M3185 2523 c17 -3 37 -10 45 -16 13 -10 13 -10 1 6 -8 10 -25 16 -45
16 l-31 -2 30 -4z"/>
<path d="M4470 2510 c-6 -11 -8 -20 -6 -20 3 0 10 9 16 20 6 11 8 20 6 20 -3
0 -10 -9 -16 -20z"/>
<path d="M6670 2491 c0 -28 3 -31 31 -31 27 0 30 3 27 28 -2 21 -9 28 -30 30
-25 3 -28 0 -28 -27z m50 -1 c0 -13 -7 -20 -20 -20 -13 0 -20 7 -20 20 0 13 7
20 20 20 13 0 20 -7 20 -20z"/>
<path d="M2160 2500 c0 -5 -24 -10 -53 -10 -28 0 -84 -7 -122 -16 -72 -16
-197 -40 -272 -50 -29 -5 -53 -1 -77 10 -38 18 -175 22 -205 7 -10 -6 -71 -26
-136 -46 -65 -20 -140 -46 -165 -59 -70 -35 -101 -39 -213 -26 -111 13 -114
13 -370 -64 -66 -20 -124 -29 -230 -35 -110 -7 -152 -13 -187 -30 -25 -11 -64
-25 -87 -31 l-43 -11 0 -149 c0 -83 3 -150 6 -150 3 0 14 5 25 11 11 6 41 14
67 19 105 18 127 26 190 63 28 17 52 38 52 47 0 13 2 13 10 0 8 -12 10 -12 16
3 3 9 10 15 14 12 12 -8 41 6 34 16 -3 5 4 9 14 9 32 0 177 82 232 132 35 32
67 51 101 59 27 7 49 19 49 26 0 14 39 38 47 29 4 -3 12 -1 19 5 9 7 19 7 33
-1 16 -8 21 -8 21 1 0 17 130 2 151 -17 8 -7 18 -14 22 -14 3 0 35 -14 71 -30
49 -23 66 -36 66 -50 0 -15 -7 -20 -28 -20 -35 0 -71 -23 -53 -34 7 -5 60 -12
118 -17 58 -5 110 -12 116 -16 6 -4 24 -8 39 -10 16 -1 45 -10 64 -18 20 -8
47 -15 61 -15 13 0 33 -4 43 -10 10 -5 33 -12 51 -14 19 -3 60 -12 91 -22 64
-19 148 -13 148 11 0 19 -25 25 -107 23 -39 0 -84 4 -100 9 -15 6 -55 18 -88
28 -92 25 -147 46 -185 69 -19 11 -36 20 -37 18 -9 -8 -21 1 -26 19 -4 16 -3
18 9 8 11 -9 14 -8 14 2 0 9 3 10 8 4 9 -14 57 -13 58 0 0 6 6 21 12 35 9 22
11 23 13 5 1 -11 0 -24 -1 -30 -1 -5 2 -6 6 -2 5 4 9 26 10 48 2 44 14 67 14
26 0 -14 4 -29 10 -32 6 -3 7 1 4 10 -7 16 24 47 38 39 4 -2 9 0 13 5 3 6 13
7 22 4 12 -5 15 -2 10 10 -3 9 -1 19 5 23 7 4 8 3 4 -4 -4 -7 -2 -12 3 -12 6
0 11 5 11 10 0 6 6 10 14 10 8 0 17 8 21 18 6 16 7 16 20 -2 14 -18 15 -18 25
5 7 15 20 25 35 25 15 1 22 -2 18 -9 -3 -6 4 -3 16 6 13 8 28 14 35 12 26 -10
66 -13 61 -6 -6 10 64 37 120 46 22 4 60 13 85 21 25 8 63 15 85 17 22 1 39 6
38 10 -2 4 -3 16 -3 27 0 11 -4 20 -10 20 -5 0 -10 -4 -10 -10z"/>
<path d="M2372 2498 c-16 -20 -19 -71 -5 -75 9 -3 11 4 7 26 -4 19 -2 37 6 46
7 8 10 15 7 15 -2 0 -9 -6 -15 -12z"/>
<path d="M2988 2503 c12 -2 30 -2 40 0 9 3 -1 5 -23 4 -22 0 -30 -2 -17 -4z"/>
<path d="M3310 2498 c20 -21 100 -31 100 -13 0 10 -11 12 -40 8 -25 -4 -46 -1
-57 8 -16 12 -16 11 -3 -3z"/>
<path d="M6250 2506 c0 -2 8 -10 18 -17 15 -13 16 -12 3 4 -13 16 -21 21 -21
13z"/>
<path d="M6768 2503 c12 -2 30 -2 40 0 9 3 -1 5 -23 4 -22 0 -30 -2 -17 -4z"/>
<path d="M2516 2488 c3 -4 14 -8 24 -8 17 0 19 -9 22 -67 l3 -68 5 72 5 71
-32 4 c-17 2 -29 0 -27 -4z"/>
<path d="M3100 2494 c34 -7 108 -8 103 -1 -2 4 -30 6 -61 6 -31 -1 -50 -3 -42
-5z"/>
<path d="M3240 2486 c0 -2 8 -10 18 -17 15 -13 16 -12 3 4 -13 16 -21 21 -21
13z"/>
<path d="M4411 2473 c17 -28 23 -28 40 -5 11 14 11 15 -1 5 -11 -10 -18 -9
-33 5 -19 16 -19 16 -6 -5z"/>
<path d="M6773 2483 c15 -2 39 -2 55 0 15 2 2 4 -28 4 -30 0 -43 -2 -27 -4z"/>
<path d="M2594 2345 c0 -77 2 -107 3 -67 2 40 2 103 0 140 -2 37 -3 4 -3 -73z"/>
<path d="M2618 2309 c2 -128 0 -175 -10 -187 -12 -15 -11 -16 5 -3 15 12 17
33 17 182 l0 169 50 0 49 0 4 -67 3 -68 2 73 2 72 -62 0 -63 0 3 -171z"/>
<path d="M2956 2473 c-4 -4 -43 -6 -86 -4 l-80 3 2 -154 2 -153 3 148 c4 185
23 200 23 18 0 -72 3 -132 8 -134 4 -3 6 55 4 129 l-3 135 38 -5 c21 -2 44 -5
51 -5 8 -1 12 -20 12 -60 0 -33 3 -62 8 -64 4 -3 5 24 4 59 -2 37 0 64 6 64 5
0 12 7 16 15 6 16 3 19 -8 8z"/>
<path d="M7000 2455 c0 -20 5 -25 25 -25 20 0 25 5 25 25 0 20 -5 25 -25 25
-20 0 -25 -5 -25 -25z"/>
<path d="M2760 2307 c-3 -93 -1 -171 3 -174 5 -3 9 -3 10 -2 1 2 0 81 -3 174
l-6 170 -4 -168z"/>
<path d="M3223 2454 c10 -12 17 -37 17 -61 0 -50 27 -110 43 -94 8 8 5 15 -11
27 -17 12 -22 25 -22 63 0 37 -5 52 -22 67 -23 19 -23 19 -5 -2z"/>
<path d="M6763 2463 c9 -2 23 -2 30 0 6 3 -1 5 -18 5 -16 0 -22 -2 -12 -5z"/>
<path d="M3894 2453 c-57 -11 -91 -101 -60 -160 66 -130 228 -69 196 73 -14
63 -72 100 -136 87z m101 -64 c35 -66 0 -143 -64 -141 -66 2 -105 77 -73 141
28 59 107 59 137 0z"/>
<path d="M3918 2413 c7 -3 16 -2 19 1 4 3 -2 6 -13 5 -11 0 -14 -3 -6 -6z"/>
<path d="M3912 2378 c-7 -7 -12 -16 -12 -22 0 -5 6 -1 14 9 12 17 16 18 32 5
17 -14 18 -14 5 3 -16 20 -23 21 -39 5z"/>
<path d="M3949 2300 c-15 -17 -23 -30 -19 -30 7 0 32 26 44 48 11 19 3 14 -25
-18z"/>
<path d="M4555 2384 l-60 -65 -180 11 c-99 5 -197 12 -217 14 -27 3 -38 0 -38
-9 0 -17 30 -21 265 -35 l179 -10 44 42 c58 57 87 98 76 108 -5 4 -36 -21 -69
-56z"/>
<path d="M6650 2438 c0 -5 28 -7 63 -7 67 1 60 6 -15 11 -27 2 -48 0 -48 -4z"/>
<path d="M4140 2405 c0 -18 5 -25 20 -25 15 0 20 7 20 25 0 18 -5 25 -20 25
-15 0 -20 -7 -20 -25z"/>
<path d="M6843 2423 c9 -2 23 -2 30 0 6 3 -1 5 -18 5 -16 0 -22 -2 -12 -5z"/>
<path d="M6332 2400 c0 -14 2 -19 5 -12 2 6 2 18 0 25 -3 6 -5 1 -5 -13z"/>
<path d="M3275 2388 c10 -30 13 -34 25 -22 6 6 2 16 -11 28 -20 17 -21 17 -14
-6z"/>
<path d="M6232 2367 c-15 -16 -22 -35 -21 -58 2 -33 2 -33 6 -4 3 17 9 35 15
40 7 7 9 -3 5 -32 -3 -24 -1 -43 3 -43 6 0 20 108 15 117 -1 2 -11 -7 -23 -20z"/>
<path d="M2910 2308 c0 -3 14 -22 30 -43 17 -21 30 -34 30 -29 -1 10 -60 82
-60 72z"/>
<path d="M7000 2280 c0 -33 15 -38 45 -17 17 13 17 15 -6 30 -33 24 -39 21
-39 -13z"/>
<path d="M7080 2275 c0 -39 6 -42 39 -19 l24 17 -24 18 c-34 26 -39 24 -39
-16z"/>
<path d="M7160 2276 c0 -39 4 -42 39 -22 l23 13 -31 22 -31 22 0 -35z"/>
<path d="M7655 2240 c-23 -36 -53 -85 -68 -110 l-26 -45 67 -117 67 -116 68
-6 c37 -3 98 -9 136 -12 l68 -6 58 94 c32 51 65 101 73 110 12 15 6 30 -55
134 -79 136 -68 130 -242 136 l-104 3 -42 -65z m260 22 c37 -7 42 -12 97 -109
l58 -101 -38 -58 c-21 -33 -47 -74 -57 -91 -18 -31 -23 -33 -75 -33 -30 0 -84
3 -120 6 l-66 7 -57 100 -58 100 56 94 56 93 82 -1 c45 0 100 -3 122 -7z"/>
<path d="M7705 2190 c3 -5 8 -10 11 -10 2 0 4 5 4 10 0 6 -5 10 -11 10 -5 0
-7 -4 -4 -10z"/>
<path d="M7808 2193 c12 -2 32 -2 45 0 12 2 2 4 -23 4 -25 0 -35 -2 -22 -4z"/>
<path d="M7881 2187 c2 -1 13 -9 24 -17 19 -14 19 -14 6 3 -7 9 -18 17 -24 17
-6 0 -8 -1 -6 -3z"/>
<path d="M7732 2160 c-14 -12 -22 -27 -19 -37 4 -17 5 -17 6 0 0 10 4 16 9 13
4 -2 12 7 19 20 6 13 10 24 10 24 -1 -1 -12 -9 -25 -20z"/>
<path d="M7801 2146 c-10 -12 -6 -14 21 -11 18 1 43 -4 56 -11 12 -8 22 -12
22 -9 0 8 -63 45 -76 45 -6 0 -17 -6 -23 -14z"/>
<path d="M7930 2151 c0 -5 5 -13 10 -16 6 -3 10 -15 10 -25 0 -23 16 -35 23
-17 2 7 -6 25 -19 40 -13 16 -24 24 -24 18z"/>
<path d="M7762 2105 c-7 -14 -12 -31 -12 -38 1 -7 7 3 16 22 17 39 13 54 -4
16z"/>
<path d="M7812 2098 c-22 -22 -14 -57 13 -64 45 -11 71 29 39 60 -19 19 -36
20 -52 4z"/>
<path d="M7702 2075 c0 -16 2 -22 5 -12 2 9 2 23 0 30 -3 6 -5 -1 -5 -18z"/>
<path d="M7903 2045 c-17 -19 -16 -35 2 -35 9 0 15 9 15 25 0 29 -1 29 -17 10z"/>
<path d="M7760 2043 c0 -5 10 -18 23 -29 l22 -19 -20 25 c-11 14 -21 27 -22
29 -2 2 -3 0 -3 -6z"/>
<path d="M7715 2025 c4 -11 9 -27 12 -37 3 -9 12 -19 21 -22 10 -3 24 -9 32
-13 8 -3 1 7 -16 23 -17 16 -37 38 -43 49 l-13 20 7 -20z"/>
<path d="M7990 2000 c0 -5 5 -10 10 -10 6 0 10 5 10 10 0 6 -4 10 -10 10 -5 0
-10 -4 -10 -10z"/>
<path d="M2970 2288 c22 -23 70 -32 70 -13 0 11 -6 14 -25 9 -15 -4 -32 -1
-43 7 -15 12 -15 11 -2 -3z"/>
<path d="M6286 2272 c-10 -19 -15 -36 -12 -40 3 -3 6 0 6 6 0 6 7 18 16 26 8
9 14 22 11 29 -2 6 -12 -3 -21 -21z"/>
<path d="M7240 2265 l0 -36 31 17 c33 17 32 18 -13 45 -16 8 -18 5 -18 -26z"/>
<path d="M7310 2265 c0 -38 13 -44 45 -19 20 15 20 15 -5 34 -35 27 -40 25
-40 -15z"/>
<path d="M7390 2261 l0 -41 35 17 c19 9 34 17 32 18 -1 1 -17 12 -34 24 l-33
22 0 -40z"/>
<path d="M7470 2255 c0 -39 0 -39 35 -23 31 14 31 21 0 42 -33 22 -35 21 -35
-19z"/>
<path d="M2905 2230 c10 -11 20 -20 23 -20 3 0 -3 9 -13 20 -10 11 -20 20 -23
20 -3 0 3 -9 13 -20z"/>
<path d="M4115 2236 c-19 -14 -19 -16 -3 -32 21 -22 31 -14 26 21 -3 24 -4 25
-23 11z"/>
<path d="M4602 2228 c2 -15 11 -24 26 -26 18 -3 22 1 22 22 0 21 -5 26 -26 26
-21 0 -25 -4 -22 -22z"/>
<path d="M2992 2231 c-11 -7 -10 -10 3 -15 23 -9 25 -8 25 9 0 17 -9 19 -28 6z"/>
<path d="M4166 2227 c-17 -13 -17 -14 8 -30 l26 -17 0 30 c0 33 -7 37 -34 17z"/>
<path d="M4227 2226 c-13 -10 -14 -15 -5 -23 33 -25 38 -24 38 6 0 34 -6 37
-33 17z"/>
<path d="M4453 2218 c-29 -14 -28 -19 2 -41 l25 -18 0 36 c0 19 -1 35 -2 34
-2 0 -13 -5 -25 -11z"/>
<path d="M2549 2203 c-13 -16 -12 -17 4 -4 9 7 17 15 17 17 0 8 -8 3 -21 -13z"/>
<path d="M2895 2178 c37 -48 37 -48 34 -133 -3 -67 -1 -85 10 -85 8 0 11 6 7
16 -3 9 -6 48 -6 87 0 70 -1 73 -41 117 l-41 45 37 -47z"/>
<path d="M3780 2195 c0 -18 5 -25 20 -25 15 0 20 7 20 25 0 18 -5 25 -20 25
-15 0 -20 -7 -20 -25z"/>
<path d="M6250 2201 c-5 -11 -10 -27 -10 -36 0 -8 -10 -20 -22 -25 -13 -5 -17
-9 -10 -9 8 -1 4 -14 -13 -38 -26 -39 -34 -64 -12 -41 27 29 70 104 77 135 9
37 5 42 -10 14z"/>
<path d="M2579 2183 c-13 -16 -12 -17 4 -4 16 13 21 21 13 21 -2 0 -10 -8 -17
-17z"/>
<path d="M2946 2178 c10 -14 21 -24 23 -22 3 3 -6 15 -18 27 l-24 22 19 -27z"/>
<path d="M2855 2160 c10 -11 20 -20 23 -20 3 0 -3 9 -13 20 -10 11 -20 20 -23
20 -3 0 3 -9 13 -20z"/>
<path d="M2800 2156 c0 -2 8 -10 18 -17 15 -13 16 -12 3 4 -13 16 -21 21 -21
13z"/>
<path d="M2629 2113 c-13 -16 -12 -17 4 -4 9 7 17 15 17 17 0 8 -8 3 -21 -13z"/>
<path d="M2888 2029 c2 -65 0 -99 -7 -99 -6 0 -11 -7 -11 -15 0 -20 16 -19 24
1 9 23 7 202 -1 207 -5 3 -7 -39 -5 -94z"/>
<path d="M2654 2098 l-19 -23 23 19 c12 11 22 21 22 23 0 8 -8 2 -26 -19z"/>
<path d="M2685 2090 c-10 -11 -16 -22 -14 -24 2 -2 12 7 22 20 22 29 17 32 -8
4z"/>
<path d="M2719 2093 c-13 -16 -12 -17 4 -4 16 13 21 21 13 21 -2 0 -10 -8 -17
-17z"/>
<path d="M2846 2097 c3 -10 9 -15 12 -12 3 3 0 11 -7 18 -10 9 -11 8 -5 -6z"/>
<path d="M4380 2055 c0 -28 4 -35 19 -35 11 0 26 -3 35 -6 13 -5 16 2 16 35 0
40 -1 41 -35 41 -33 0 -35 -2 -35 -35z"/>
<path d="M6035 2079 c-11 -17 0 -20 21 -4 17 13 17 14 2 15 -9 0 -20 -5 -23
-11z"/>
<path d="M2975 2048 c0 -18 6 -33 14 -36 11 -4 12 2 7 24 -11 42 -21 48 -21
12z"/>
<path d="M5940 2065 c0 -8 2 -15 4 -15 2 0 6 7 10 15 3 8 1 15 -4 15 -6 0 -10
-7 -10 -15z"/>
<path d="M2697 2050 c-7 -28 1 -46 14 -33 6 6 6 19 1 33 l-9 24 -6 -24z"/>
<path d="M6790 2030 c0 -27 3 -30 30 -30 25 0 30 4 30 24 0 23 -16 36 -46 36
-9 0 -14 -11 -14 -30z"/>
<path d="M6540 1980 l0 -40 40 0 40 0 0 40 0 40 -40 0 -40 0 0 -40z"/>
<path d="M6130 2001 c0 -7 -4 -10 -9 -7 -5 3 -11 -4 -14 -16 l-6 -21 21 21
c12 12 19 25 15 28 -4 4 -7 2 -7 -5z"/>
<path d="M5475 1980 c3 -5 11 -10 16 -10 6 0 7 5 4 10 -3 6 -11 10 -16 10 -6
0 -7 -4 -4 -10z"/>
<path d="M2834 1948 l-19 -23 23 19 c21 18 27 26 19 26 -2 0 -12 -10 -23 -22z"/>
<path d="M5770 1960 c0 -5 5 -10 11 -10 5 0 7 5 4 10 -3 6 -8 10 -11 10 -2 0
-4 -4 -4 -10z"/>
<path d="M2035 1951 c6 -6 26 -14 45 -17 24 -5 32 -3 25 4 -5 5 -26 13 -45 17
-25 5 -32 4 -25 -4z"/>
<path d="M6070 1945 c-11 -13 -10 -14 4 -9 9 3 16 10 16 15 0 13 -6 11 -20 -6z"/>
<path d="M5813 1934 c-15 -16 -16 -24 -4 -24 8 0 24 30 19 35 -2 2 -9 -3 -15
-11z"/>
<path d="M4600 1916 c0 -15 7 -26 19 -29 25 -6 31 0 31 30 0 18 -5 23 -25 23
-20 0 -25 -5 -25 -24z"/>
<path d="M5196 1923 c-3 -3 6 -12 21 -20 14 -7 27 -12 29 -11 5 6 -44 37 -50
31z"/>
<path d="M5535 1920 c-3 -5 -1 -10 4 -10 6 0 11 5 11 10 0 6 -2 10 -4 10 -3 0
-8 -4 -11 -10z"/>
<path d="M2205 1910 c3 -5 10 -10 16 -10 5 0 9 5 9 10 0 6 -7 10 -16 10 -8 0
-12 -4 -9 -10z"/>
<path d="M2810 1870 c0 -11 5 -20 10 -20 6 0 10 9 10 20 0 11 -4 20 -10 20 -5
0 -10 -9 -10 -20z"/>
<path d="M5786 1867 c3 -10 9 -15 12 -12 3 3 0 11 -7 18 -10 9 -11 8 -5 -6z"/>
<path d="M5940 1860 c-8 -5 -10 -10 -5 -10 6 0 17 5 25 10 8 5 11 10 5 10 -5
0 -17 -5 -25 -10z"/>
<path d="M5900 1839 c0 -5 5 -7 10 -4 6 3 10 8 10 11 0 2 -4 4 -10 4 -5 0 -10
-5 -10 -11z"/>
<path d="M5402 1831 c-10 -6 -10 -10 2 -20 22 -19 40 -10 24 11 -8 11 -18 15
-26 9z"/>
<path d="M5760 1831 c0 -6 4 -13 10 -16 6 -3 7 1 4 9 -7 18 -14 21 -14 7z"/>
<path d="M5795 1830 c-3 -5 -2 -10 4 -10 5 0 13 5 16 10 3 6 2 10 -4 10 -5 0
-13 -4 -16 -10z"/>
<path d="M5837 1814 c-16 -9 -27 -17 -25 -20 7 -6 68 19 68 28 0 11 -11 9 -43
-8z"/>
<path d="M5595 1810 c-9 -14 7 -41 21 -36 7 3 16 1 19 -4 8 -13 72 -13 80 -1
7 12 -24 43 -36 36 -5 -4 -14 -3 -21 1 -18 11 -57 14 -63 4z"/>
<path d="M5857 1789 c-32 -17 -37 -24 -36 -52 1 -17 6 -47 11 -65 7 -23 6 -37
-2 -47 -11 -13 -8 -15 18 -15 17 0 42 -5 55 -11 29 -13 74 4 91 36 6 10 20 27
31 37 17 15 18 17 3 18 -11 0 -15 6 -11 19 5 19 -19 75 -36 85 -24 15 -88 12
-124 -5z"/>
<path d="M5500 1790 c14 -4 36 -8 50 -8 22 0 22 1 -5 8 -16 4 -39 8 -50 8 -16
0 -15 -2 5 -8z"/>
<path d="M6305 1694 c3 -21 7 -39 8 -40 1 -1 18 -4 37 -6 35 -3 35 -3 35 37
l0 40 -43 3 -43 3 6 -37z"/>
<path d="M7290 1679 c-49 -21 -90 -71 -95 -115 -3 -31 13 -74 28 -74 5 0 27
-16 49 -35 52 -44 108 -54 164 -29 27 11 61 16 110 15 48 -1 74 2 81 11 6 7
14 41 18 75 7 64 -4 103 -30 103 -8 0 -15 13 -17 33 -2 26 -8 33 -30 35 -22 3
-29 -2 -33 -21 -9 -34 -49 -52 -67 -30 -16 20 -86 53 -113 52 -11 0 -40 -9
-65 -20z m146 -50 c21 -19 33 -49 20 -49 -3 0 -18 14 -34 30 -17 17 -40 30
-51 30 -11 0 -23 5 -27 12 -13 20 67 1 92 -23z m-26 -19 c11 -11 20 -29 20
-39 0 -21 -46 -81 -61 -81 -19 0 -8 28 17 44 31 21 29 57 -3 71 -13 5 -23 13
-23 17 0 15 30 8 50 -12z m-23 -35 c9 -25 -4 -29 -17 -6 -7 15 -7 21 0 21 6 0
13 -7 17 -15z m70 -49 c-3 -49 -31 -76 -78 -76 -37 0 -58 13 -40 24 5 4 12 2
16 -4 11 -18 22 -11 61 40 21 28 39 50 40 50 2 0 2 -15 1 -34z"/>
<path d="M0 1539 l0 -141 31 7 c41 9 69 25 101 58 15 15 32 27 38 27 6 0 18 6
25 14 8 7 32 16 55 20 48 8 78 30 58 43 -38 23 -124 63 -136 63 -8 0 -46 11
-84 25 -38 14 -73 25 -79 25 -5 0 -9 -60 -9 -141z"/>
<path d="M6988 1672 c-28 -3 -44 -27 -27 -38 6 -3 15 -2 21 4 7 7 21 6 44 -4
33 -14 49 -8 36 12 -12 18 -45 30 -74 26z"/>
<path d="M3483 1643 c9 -2 25 -2 35 0 9 3 1 5 -18 5 -19 0 -27 -2 -17 -5z"/>
<path d="M3553 1633 c9 -2 25 -2 35 0 9 3 1 5 -18 5 -19 0 -27 -2 -17 -5z"/>
<path d="M6030 1555 c0 -14 4 -25 9 -25 5 0 16 -3 25 -6 13 -5 16 1 16 25 0
26 -4 31 -25 31 -20 0 -25 -5 -25 -25z"/>
<path d="M8379 1572 c-24 -7 -36 -30 -31 -62 4 -28 22 -44 22 -19 0 8 5 8 15
-1 9 -8 15 -9 15 -2 0 16 84 26 109 13 19 -10 21 -9 21 12 0 14 -6 29 -12 35
-16 12 -119 30 -139 24z"/>
<path d="M7072 1473 c2 -22 9 -29 31 -31 24 -3 27 0 27 27 0 28 -3 31 -31 31
-27 0 -30 -3 -27 -27z"/>
<path d="M8373 1418 c13 -19 23 -23 31 -10 7 12 -7 29 -26 29 -13 0 -14 -4 -5
-19z"/>
<path d="M4128 613 c7 -3 16 -2 19 1 4 3 -2 6 -13 5 -11 0 -14 -3 -6 -6z"/>
<path d="M4048 593 c7 -3 16 -2 19 1 4 3 -2 6 -13 5 -11 0 -14 -3 -6 -6z"/>
<path d="M3968 573 c7 -3 16 -2 19 1 4 3 -2 6 -13 5 -11 0 -14 -3 -6 -6z"/>
<path d="M4163 513 c9 -2 23 -2 30 0 6 3 -1 5 -18 5 -16 0 -22 -2 -12 -5z"/>
<path d="M4618 453 c7 -3 16 -2 19 1 4 3 -2 6 -13 5 -11 0 -14 -3 -6 -6z"/>
<path d="M4003 433 c9 -2 23 -2 30 0 6 3 -1 5 -18 5 -16 0 -22 -2 -12 -5z"/>
<path d="M4228 433 c7 -3 16 -2 19 1 4 3 -2 6 -13 5 -11 0 -14 -3 -6 -6z"/>
<path d="M2357 389 c8 -62 33 -83 126 -103 111 -23 143 -21 172 10 13 14 27
35 31 46 9 28 -3 65 -23 73 -10 4 -84 10 -165 13 l-146 5 5 -44z"/>
<path d="M4138 413 c7 -3 16 -2 19 1 4 3 -2 6 -13 5 -11 0 -14 -3 -6 -6z"/>
<path d="M4218 403 c7 -3 16 -2 19 1 4 3 -2 6 -13 5 -11 0 -14 -3 -6 -6z"/>
<path d="M4065 390 c-13 -6 -15 -9 -5 -9 8 0 22 4 30 9 18 12 2 12 -25 0z"/>
<path d="M3918 353 c7 -3 16 -2 19 1 4 3 -2 6 -13 5 -11 0 -14 -3 -6 -6z"/>
<path d="M3827 339 c8 -8 16 -8 30 0 16 9 14 10 -11 11 -22 0 -27 -3 -19 -11z"/>
<path d="M3298 323 c12 -2 30 -2 40 0 9 3 -1 5 -23 4 -22 0 -30 -2 -17 -4z"/>
<path d="M4778 323 c7 -3 16 -2 19 1 4 3 -2 6 -13 5 -11 0 -14 -3 -6 -6z"/>
<path d="M3368 313 c6 -2 18 -2 25 0 6 3 1 5 -13 5 -14 0 -19 -2 -12 -5z"/>
<path d="M3428 299 c13 -5 27 -7 31 -5 4 3 34 -1 67 -9 32 -7 84 -16 114 -19
30 -3 66 -8 80 -11 47 -9 395 -54 460 -60 36 -3 74 -8 86 -10 11 -3 52 -7 90
-10 38 -3 109 -10 158 -16 49 -5 91 -7 94 -5 8 9 -17 14 -148 31 -167 21 -191
26 -185 35 3 5 -12 6 -32 3 -21 -2 -92 3 -158 11 -338 46 -595 76 -645 75 -32
0 -33 -1 -12 -10z"/>
<path d="M4288 283 c7 -3 16 -2 19 1 4 3 -2 6 -13 5 -11 0 -14 -3 -6 -6z"/>
<path d="M4628 153 c7 -3 16 -2 19 1 4 3 -2 6 -13 5 -11 0 -14 -3 -6 -6z"/>
<path d="M4670 146 c0 -2 14 -6 30 -8 17 -3 30 -1 30 4 0 4 -13 8 -30 8 -16 0
-30 -2 -30 -4z"/>
<path d="M4840 140 c-8 -5 -12 -11 -9 -14 3 -3 14 1 25 9 21 16 8 20 -16 5z"/>
<path d="M4778 123 c7 -3 16 -2 19 1 4 3 -2 6 -13 5 -11 0 -14 -3 -6 -6z"/>
</g>
</svg>
